<?xml version="1.0" encoding="utf-8"?>
<svg xmlns="http://www.w3.org/2000/svg" viewBox="0 0 100 100" width="500" height="500">
  <path fill="#c7ede6" d="M88.334,56.122c0.299-0.614,0.563-1.259,0.792-1.935c2.622-7.739-1.343-17.008-9.693-19.245c-0.903-11.338-8.87-19.115-17.867-20.442c-10.298-1.519-19.733,5.023-22.872,15.422c-3.784-1.34-7.471-1.177-10.945,0.853c-1.576,0.729-3.018,1.805-4.312,3.22c-1.9,2.077-3.134,4.7-3.637,7.465c-0.745,0.117-1.477,0.235-2.167,0.482c-4.023,1.443-6.562,4.413-7.258,8.886c-0.434,2.785,0.441,5.564,0.929,6.687c1.927,4.436,6.396,6.952,10.936,6.286c0.226-0.033,0.554,0.069,0.749,0.232c0.24,7.091,3.683,13.362,8.848,16.944c8.287,5.748,18.949,3.977,25.675-3.905c2.882,2.948,6.313,4.38,10.342,3.86c4.006-0.517,7.117-2.728,9.387-6.322c1.048,0.282,2.043,0.689,3.071,0.801c4.025,0.44,7.294-1.161,9.692-4.78c0.918-1.385,1.786-3.181,1.786-6.328C91.79,61.058,90.502,58.103,88.334,56.122z" />
  <path fill="#fdfcef" d="M76.488,49.52c0,0,11.643,0,11.714,0c2.689,0,4.868-2.18,4.868-4.869c0-2.346-1.659-4.303-3.868-4.765c0.025-0.205,0.043-0.413,0.043-0.625c0-2.785-2.257-5.042-5.042-5.042c-1.644,0-3.1,0.791-4.02,2.008c-0.235-3.1-3.004-5.491-6.244-5.095c-2.369,0.29-4.328,2.121-4.764,4.467c-0.14,0.752-0.125,1.483,0.014,2.168c-0.635-0.684-1.539-1.115-2.546-1.115c-1.843,0-3.347,1.435-3.466,3.248c-0.837-0.185-1.747-0.173-2.706,0.187c-1.832,0.688-3.137,2.413-3.214,4.369c-0.108,2.778,2.111,5.064,4.864,5.064c0.209,0,0.944,0,1.114,0h10.109" />
  <path fill="#472b29" d="M88.203,50.02H76.489c-0.276,0-0.5-0.224-0.5-0.5s0.224-0.5,0.5-0.5h11.714c2.408,0,4.368-1.959,4.368-4.368c0-2.057-1.46-3.855-3.471-4.275c-0.254-0.053-0.426-0.292-0.394-0.551c0.022-0.185,0.039-0.373,0.039-0.564c0-2.505-2.037-4.542-4.542-4.542c-1.433,0-2.753,0.66-3.621,1.81c-0.126,0.166-0.343,0.238-0.54,0.179c-0.2-0.059-0.342-0.235-0.358-0.442c-0.104-1.371-0.775-2.659-1.842-3.533c-1.078-0.884-2.44-1.275-3.843-1.104c-2.155,0.264-3.938,1.934-4.334,4.062c-0.123,0.665-0.118,1.33,0.014,1.978c0.044,0.219-0.062,0.442-0.262,0.544c-0.197,0.103-0.442,0.061-0.595-0.104c-0.572-0.616-1.347-0.955-2.181-0.955c-1.562,0-2.864,1.221-2.966,2.78c-0.01,0.146-0.082,0.279-0.199,0.367c-0.116,0.087-0.266,0.118-0.408,0.088c-0.838-0.186-1.63-0.131-2.422,0.167c-1.661,0.624-2.823,2.199-2.89,3.92c-0.047,1.202,0.385,2.339,1.216,3.203c0.831,0.865,1.949,1.341,3.148,1.341h11.224c0.276,0,0.5,0.224,0.5,0.5s-0.224,0.5-0.5,0.5H62.122c-1.474,0-2.848-0.585-3.869-1.647c-1.021-1.062-1.553-2.459-1.495-3.936c0.083-2.118,1.505-4.054,3.538-4.817c0.797-0.299,1.621-0.4,2.457-0.298c0.376-1.815,1.989-3.168,3.89-3.168c0.69,0,1.351,0.174,1.935,0.501c0-0.381,0.035-0.764,0.106-1.146c0.475-2.553,2.611-4.557,5.195-4.872c1.673-0.207,3.306,0.264,4.598,1.323c0.999,0.819,1.709,1.941,2.03,3.178c1.008-0.911,2.309-1.417,3.697-1.417c3.056,0,5.542,2.486,5.542,5.542c0,0.083-0.002,0.165-0.007,0.246c2.245,0.67,3.832,2.767,3.832,5.144C93.571,47.612,91.163,50.02,88.203,50.02z" />
  <path fill="#fdfcef" d="M73.667,38.796c-1.801-0.118-3.351,1.126-3.462,2.778c-0.014,0.205-0.005,0.407,0.025,0.604c-0.347-0.392-0.862-0.659-1.452-0.697c-1.08-0.071-2.013,0.643-2.149,1.613c-0.197-0.054-0.401-0.09-0.614-0.104c-1.576-0.103-2.932,0.985-3.029,2.431" />
  <path fill="#472b29" d="M62.986,45.669c-0.006,0-0.011,0-0.017,0c-0.138-0.009-0.242-0.128-0.232-0.266c0.106-1.581,1.567-2.779,3.295-2.664c0.135,0.009,0.271,0.027,0.406,0.053c0.273-0.964,1.256-1.638,2.356-1.562c0.423,0.028,0.819,0.159,1.157,0.38c0.001-0.018,0.002-0.036,0.004-0.054c0.119-1.787,1.782-3.137,3.728-3.011c0.138,0.009,0.242,0.128,0.232,0.266c-0.008,0.137-0.096,0.243-0.266,0.233c-1.667-0.112-3.095,1.033-3.196,2.545c-0.012,0.181-0.004,0.366,0.023,0.551c0.017,0.109-0.041,0.216-0.142,0.263c-0.102,0.045-0.22,0.022-0.293-0.061c-0.321-0.362-0.775-0.581-1.281-0.613c-0.933-0.058-1.766,0.552-1.884,1.398c-0.011,0.071-0.051,0.134-0.11,0.174c-0.059,0.04-0.131,0.053-0.203,0.033c-0.188-0.051-0.379-0.083-0.565-0.096c-1.438-0.095-2.675,0.893-2.764,2.198C63.226,45.568,63.117,45.669,62.986,45.669z" />
  <path fill="#fdfcef" d="M90.173,40.457c-1.692-0.798-3.649-0.233-4.371,1.262c-0.09,0.186-0.156,0.377-0.2,0.571" />
  <path fill="#472b29" d="M85.602,42.54c-0.019,0-0.037-0.002-0.057-0.006c-0.135-0.031-0.218-0.166-0.187-0.3c0.05-0.218,0.124-0.428,0.218-0.624c0.78-1.615,2.892-2.233,4.703-1.378c0.125,0.059,0.179,0.208,0.12,0.333c-0.06,0.125-0.209,0.178-0.333,0.12c-1.567-0.738-3.378-0.226-4.039,1.144c-0.079,0.162-0.14,0.337-0.183,0.519C85.819,42.462,85.716,42.54,85.602,42.54z" />
  <path fill="#fff" d="M18.288 48.192H8.298c-.276 0-.5-.224-.5-.5s.224-.5.5-.5h9.989c.276 0 .5.224.5.5S18.564 48.192 18.288 48.192zM21.157 48.192h-1.439c-.276 0-.5-.224-.5-.5s.224-.5.5-.5h1.439c.276 0 .5.224.5.5S21.433 48.192 21.157 48.192zM25.195 48.192H22.66c-.276 0-.5-.224-.5-.5s.224-.5.5-.5h2.535c.276 0 .5.224.5.5S25.471 48.192 25.195 48.192zM25.195 50.049h-9.576c-.276 0-.5-.224-.5-.5s.224-.5.5-.5h9.576c.276 0 .5.224.5.5S25.471 50.049 25.195 50.049zM13.894 50.049h-.578c-.276 0-.5-.224-.5-.5s.224-.5.5-.5h.578c.276 0 .5.224.5.5S14.17 50.049 13.894 50.049zM11.527 50.049h-1.45c-.276 0-.5-.224-.5-.5s.224-.5.5-.5h1.45c.276 0 .5.224.5.5S11.803 50.049 11.527 50.049zM20.625 46.335h-5.007c-.276 0-.5-.224-.5-.5s.224-.5.5-.5h5.007c.276 0 .5.224.5.5S20.902 46.335 20.625 46.335zM20.625 44.478h-1.253c-.276 0-.5-.224-.5-.5s.224-.5.5-.5h1.253c.276 0 .5.224.5.5S20.902 44.478 20.625 44.478zM17.37 51.907h-1.751c-.276 0-.5-.224-.5-.5s.224-.5.5-.5h1.751c.276 0 .5.224.5.5S17.646 51.907 17.37 51.907z" />
  <g>
    <path fill="#fff" d="M71.248 22.023h-9.989c-.276 0-.5-.224-.5-.5s.224-.5.5-.5h9.989c.276 0 .5.224.5.5S71.524 22.023 71.248 22.023zM74.117 22.023h-1.439c-.276 0-.5-.224-.5-.5s.224-.5.5-.5h1.439c.276 0 .5.224.5.5S74.393 22.023 74.117 22.023zM78.155 22.023H75.62c-.276 0-.5-.224-.5-.5s.224-.5.5-.5h2.535c.276 0 .5.224.5.5S78.431 22.023 78.155 22.023zM76.137 18.309h-9.576c-.276 0-.5-.224-.5-.5s.224-.5.5-.5h9.576c.276 0 .5.224.5.5S76.414 18.309 76.137 18.309zM64.836 18.309h-.578c-.276 0-.5-.224-.5-.5s.224-.5.5-.5h.578c.276 0 .5.224.5.5S65.113 18.309 64.836 18.309zM62.469 18.309h-1.45c-.276 0-.5-.224-.5-.5s.224-.5.5-.5h1.45c.276 0 .5.224.5.5S62.746 18.309 62.469 18.309zM73.584 20.166h-5.007c-.276 0-.5-.224-.5-.5s.224-.5.5-.5h5.007c.276 0 .5.224.5.5S73.861 20.166 73.584 20.166z" />
    <path fill="#fff" d="M73.584 18.309h-1.252c-.276 0-.5-.224-.5-.5s.224-.5.5-.5h1.252c.276 0 .5.224.5.5S73.861 18.309 73.584 18.309zM67.128 20.166h-1.751c-.276 0-.5-.224-.5-.5s.224-.5.5-.5h1.751c.276 0 .5.224.5.5S67.405 20.166 67.128 20.166z" />
  </g>
  <g>
    <path fill="#78a0cf" d="M66.507,73.021H36.972c-3.766,0-6.847-3.081-6.847-6.847V36.639c0-3.766,3.081-6.847,6.847-6.847h29.535c3.766,0,6.847,3.081,6.847,6.847v29.535C73.354,69.94,70.273,73.021,66.507,73.021z" />
    <path fill="#472b29" d="M66.507,73.722H36.972c-4.162,0-7.548-3.386-7.548-7.547V36.639c0-4.162,3.386-7.547,7.548-7.547h29.535c4.161,0,7.547,3.386,7.547,7.547v29.535C74.054,70.336,70.668,73.722,66.507,73.722z M36.972,30.492c-3.39,0-6.147,2.757-6.147,6.147v29.535c0,3.39,2.758,6.147,6.147,6.147h29.535c3.39,0,6.146-2.757,6.146-6.147V36.639c0-3.39-2.757-6.147-6.146-6.147H36.972z" />
    <path fill="#fdfcee" d="M64.718,69.934H38.762c-3.052,0-5.549-2.497-5.549-5.549V38.429c0-3.052,2.497-5.549,5.549-5.549h25.956c3.052,0,5.549,2.497,5.549,5.549v25.956C70.267,67.437,67.77,69.934,64.718,69.934z" />
    <path fill="#472b29" d="M64.636 70.284H38.843c-3.298 0-5.98-2.683-5.98-5.981V38.511c0-3.298 2.683-5.981 5.98-5.981h24.562c.193 0 .35.157.35.35s-.156.35-.35.35H38.843c-2.912 0-5.281 2.369-5.281 5.281v25.792c0 2.912 2.369 5.281 5.281 5.281h25.793c2.912 0 5.281-2.369 5.281-5.281V50.034c0-.193.156-.35.35-.35s.35.157.35.35v14.269C70.617 67.601 67.934 70.284 64.636 70.284zM70.267 48.326c-.193 0-.35-.157-.35-.35v-2.745c0-.193.156-.35.35-.35s.35.157.35.35v2.745C70.617 48.169 70.46 48.326 70.267 48.326z" />
    <g>
      <path fill="#472b29" d="M70.267,44.208c-0.193,0-0.35-0.157-0.35-0.35v-1.372c0-0.193,0.156-0.35,0.35-0.35s0.35,0.157,0.35,0.35v1.372C70.617,44.052,70.46,44.208,70.267,44.208z" />
    </g>
    <g>
      <path fill="#c5def0" d="M53.051,57.835c0,0,9.808,0,9.868,0c2.265,0,4.101-1.836,4.101-4.101c0-1.976-1.398-3.625-3.258-4.014c0.021-0.173,0.036-0.348,0.036-0.527c0-2.346-1.902-4.248-4.248-4.248c-1.385,0-2.611,0.666-3.387,1.692c-0.198-2.611-2.531-4.626-5.26-4.292c-1.996,0.244-3.646,1.787-4.013,3.763c-0.118,0.634-0.106,1.249,0.012,1.827c-0.535-0.576-1.297-0.939-2.145-0.939c-1.552,0-2.819,1.209-2.92,2.736c-0.705-0.156-1.472-0.146-2.279,0.157c-1.544,0.579-2.643,2.033-2.707,3.68c-0.091,2.34,1.778,4.266,4.098,4.266c0.176,0,0.795,0,0.938,0h8.516" />
      <path fill="#472b29" d="M62.919,58.209h-9.868c-0.207,0-0.375-0.168-0.375-0.375s0.168-0.375,0.375-0.375h9.868c2.055,0,3.726-1.671,3.726-3.726c0-1.755-1.245-3.288-2.96-3.646c-0.19-0.04-0.319-0.22-0.295-0.413c0.02-0.158,0.033-0.318,0.033-0.481c0-2.135-1.737-3.873-3.873-3.873c-1.221,0-2.347,0.562-3.088,1.543c-0.093,0.124-0.253,0.179-0.404,0.134c-0.149-0.044-0.257-0.176-0.269-0.332c-0.089-1.167-0.66-2.264-1.568-3.008c-0.918-0.752-2.086-1.086-3.271-0.94c-1.837,0.225-3.354,1.647-3.69,3.459c-0.105,0.566-0.102,1.133,0.01,1.684c0.034,0.165-0.047,0.332-0.196,0.408c-0.147,0.077-0.331,0.046-0.446-0.079c-0.489-0.528-1.153-0.819-1.869-0.819c-1.34,0-2.458,1.048-2.546,2.385c-0.007,0.109-0.062,0.21-0.149,0.275c-0.088,0.066-0.202,0.09-0.306,0.066c-0.7-0.155-1.397-0.109-2.065,0.142c-1.417,0.532-2.407,1.875-2.465,3.344c-0.04,1.025,0.328,1.996,1.037,2.732c0.71,0.737,1.664,1.144,2.687,1.144h9.454c0.207,0,0.375,0.168,0.375,0.375s-0.168,0.375-0.375,0.375H40.95c-1.229,0-2.375-0.488-3.227-1.374c-0.852-0.885-1.295-2.051-1.247-3.282c0.069-1.766,1.255-3.38,2.951-4.017c0.677-0.254,1.376-0.337,2.089-0.243c0.297-1.529,1.648-2.674,3.241-2.674c0.593,0,1.172,0.163,1.676,0.46c-0.005-0.346,0.024-0.694,0.088-1.042c0.396-2.131,2.18-3.804,4.337-4.067c1.397-0.174,2.762,0.221,3.839,1.104c0.854,0.7,1.455,1.666,1.713,2.728c0.849-0.792,1.957-1.235,3.141-1.235c2.549,0,4.623,2.074,4.623,4.623c0,0.081-0.003,0.162-0.008,0.242c1.891,0.548,3.229,2.305,3.229,4.299C67.395,56.202,65.387,58.209,62.919,58.209z" />
      <path fill="#472b29" d="M41.677 54.63c-.006 0-.011 0-.017 0-.138-.009-.242-.128-.232-.266.091-1.353 1.349-2.374 2.817-2.281.104.007.208.02.312.038.249-.811 1.1-1.364 2.016-1.309.335.022.657.125.938.293.113-1.518 1.533-2.671 3.181-2.554.138.009.242.128.232.266-.009.137-.098.256-.266.233-1.377-.09-2.565.855-2.65 2.107-.01.152-.003.305.02.454.017.11-.04.217-.141.265-.102.046-.22.022-.294-.061-.26-.294-.644-.478-1.053-.504-.035-.002-.071-.003-.107-.003-.726 0-1.347.487-1.438 1.146-.011.071-.05.135-.11.174-.06.04-.132.053-.203.033-.159-.043-.312-.069-.469-.079-1.178-.078-2.213.737-2.286 1.815C41.917 54.529 41.808 54.63 41.677 54.63zM60.729 51.994c-.019 0-.037-.002-.056-.006-.135-.03-.219-.165-.188-.299.042-.185.105-.365.188-.536.666-1.38 2.466-1.909 4.013-1.179.125.059.179.208.12.333-.06.126-.21.178-.333.12-1.302-.614-2.804-.189-3.35.945-.066.136-.117.28-.15.428C60.947 51.916 60.843 51.994 60.729 51.994z" />
    </g>
  </g>
  <g>
    <path fill="#fdfcef" d="M40.473,75.777c1.876,0,3.502,0,3.526,0c2.101,0,3.805-1.667,3.805-3.724c0-1.794-1.297-3.292-3.023-3.645c0.02-0.157,0.033-0.316,0.033-0.478c0-2.13-1.764-3.857-3.941-3.857c-1.285,0-2.423,0.605-3.142,1.536c-0.184-2.371-2.348-4.2-4.88-3.897c-1.851,0.222-3.383,1.622-3.723,3.417c-0.109,0.576-0.098,1.134,0.011,1.659c-0.496-0.523-1.203-0.853-1.99-0.853c-1.44,0-2.616,1.097-2.709,2.484c-0.654-0.142-1.365-0.132-2.115,0.143c-1.432,0.526-2.452,1.846-2.512,3.342c-0.085,2.125,1.65,3.873,3.802,3.873c0.163,0,0.738,0,0.87,0h7.901 M34.022,75.777h0.358" />
    <path fill="#472b29" d="M43.998,76.277h-3.525c-0.276,0-0.5-0.224-0.5-0.5s0.224-0.5,0.5-0.5h3.525c1.822,0,3.305-1.446,3.305-3.224c0-1.517-1.103-2.844-2.623-3.155c-0.255-0.052-0.428-0.292-0.396-0.551c0.017-0.137,0.029-0.275,0.029-0.417c0-1.851-1.543-3.357-3.44-3.357c-1.087,0-2.088,0.489-2.747,1.342c-0.126,0.164-0.339,0.232-0.539,0.173c-0.197-0.059-0.339-0.234-0.354-0.44c-0.079-1.014-0.562-1.934-1.362-2.591c-0.825-0.677-1.876-0.979-2.96-0.849c-1.639,0.196-2.992,1.436-3.292,3.014c-0.094,0.491-0.09,0.984,0.009,1.464c0.046,0.219-0.06,0.441-0.258,0.544c-0.197,0.102-0.44,0.063-0.594-0.099c-0.427-0.449-1.004-0.697-1.627-0.697c-1.164,0-2.135,0.886-2.21,2.018c-0.01,0.145-0.082,0.279-0.198,0.366c-0.117,0.087-0.263,0.12-0.406,0.089c-0.636-0.138-1.235-0.097-1.837,0.123c-1.256,0.461-2.134,1.624-2.184,2.893c-0.035,0.871,0.281,1.7,0.89,2.334c0.632,0.657,1.488,1.02,2.412,1.02h8.771c0.276,0,0.5,0.224,0.5,0.5s-0.224,0.5-0.5,0.5h-8.771c-1.181,0-2.322-0.483-3.133-1.327c-0.8-0.832-1.214-1.921-1.169-3.067c0.066-1.668,1.208-3.191,2.839-3.791c0.608-0.223,1.236-0.302,1.872-0.244c0.344-1.39,1.623-2.414,3.124-2.414c0.49,0,0.971,0.112,1.405,0.32c0.009-0.24,0.036-0.48,0.082-0.72c0.38-2.002,2.089-3.573,4.155-3.82c1.354-0.16,2.676,0.217,3.713,1.069c0.744,0.61,1.271,1.402,1.539,2.29c0.788-0.645,1.778-1.001,2.83-1.001c2.448,0,4.44,1.955,4.44,4.357c0,0.034-0.001,0.067-0.001,0.101c1.757,0.553,2.99,2.18,2.99,4.022C48.303,74.382,46.373,76.277,43.998,76.277z M34.38,76.277h-0.358c-0.276,0-0.5-0.224-0.5-0.5s0.224-0.5,0.5-0.5h0.358c0.276,0,0.5,0.224,0.5,0.5S34.657,76.277,34.38,76.277z" />
    <path fill="#472b29" d="M42.298,70.497c-0.018,0-0.036-0.002-0.055-0.006c-0.135-0.03-0.22-0.164-0.189-0.299c0.037-0.167,0.094-0.327,0.168-0.478c0.604-1.219,2.267-1.669,3.708-1.003c0.126,0.058,0.181,0.207,0.122,0.332c-0.058,0.125-0.209,0.18-0.331,0.122c-1.198-0.554-2.566-0.208-3.05,0.77c-0.057,0.115-0.101,0.238-0.129,0.366C42.516,70.418,42.413,70.497,42.298,70.497z" />
    <g>
      <path fill="#472b29" d="M37.161,76.277h-1.103c-0.276,0-0.5-0.224-0.5-0.5s0.224-0.5,0.5-0.5h1.103c0.276,0,0.5,0.224,0.5,0.5S37.437,76.277,37.161,76.277z" />
    </g>
  </g>
</svg>