<?xml version="1.0" encoding="utf-8"?>
<svg xmlns="http://www.w3.org/2000/svg" viewBox="0 0 40 40" width="80" height="80">
  <path fill="#dcd5f2" d="M20,38.5c-7.859,0-14.5-2.748-14.5-6V7h29v23c-0.075,0.317-1.33,1.15-2.339,1.82 c-2.223,1.476-5.242,3.481-6.511,6.194C23.857,38.337,21.959,38.5,20,38.5z" />
  <path fill="#8b75a1" d="M34,7.5v22.348c-0.273,0.332-1.288,1.006-2.114,1.555c-2.21,1.467-5.189,3.445-6.573,6.164 C23.625,37.854,21.84,38,20,38c-8.25,0-14-2.899-14-5.5v-25H34 M35,6.5H5c0,1.29,0,24.71,0,26c0,3.59,6.716,6.5,15,6.5 c2.133,0,4.163-0.193,6-0.541c1.875-4.459,9-7.1,9-8.459C35,23.646,35,7.563,35,6.5L35,6.5z" />
  <path fill="#dcd5f2" d="M20,11.5c-8.674,0-14.5-2.585-14.5-5s5.826-5,14.5-5s14.5,2.585,14.5,5S28.674,11.5,20,11.5z" />
  <path fill="#8b75a1" d="M20,2c8.674,0,14,2.621,14,4.5S28.674,11,20,11S6,8.379,6,6.5S11.326,2,20,2 M20,1 C11.716,1,5,3.462,5,6.5S11.716,12,20,12s15-2.462,15-5.5S28.284,1,20,1L20,1z" />
  <path fill="none" stroke="#8b75a1" d="M34.5 15.183c0 2.936-6.492 5.317-14.5 5.317S5.5 18.12 5.5 15.183M5.5 23.217c0 3.47 6.492 6.283 14.5 6.283s14.5-2.813 14.5-6.283" />
  <path fill="#f5ce85" d="M24.207,39.5L22.5,37.793V36.57l4.469-4.469l-0.224-0.34c-0.388-0.59-0.306-1.381,0.194-1.882 l0.608-0.608l-0.021-0.231c-0.016-0.178-0.027-0.357-0.027-0.54c0-3.309,2.691-6,6-6s6,2.691,6,6s-2.691,6-6,6 c-0.183,0-0.362-0.012-0.54-0.027l-0.231-0.021l-0.608,0.608c-0.283,0.283-0.66,0.439-1.061,0.439 c-0.293,0-0.577-0.085-0.821-0.245l-0.34-0.224L28.43,36.5H26.5v1.93l-1.07,1.07H24.207z" />
  <path fill="#967a44" d="M33.5,23c3.033,0,5.5,2.467,5.5,5.5S36.533,34,33.5,34c-0.167,0-0.331-0.011-0.494-0.025 l-0.465-0.041l-0.33,0.33l-0.444,0.444C31.578,34.896,31.327,35,31.06,35c-0.196,0-0.385-0.056-0.548-0.163l-0.68-0.446 l-0.575,0.575L28.222,36H27h-1v1v1.222L25.223,39l-0.808,0L23,37.586l0-0.808l4.034-4.034l0.575-0.575l-0.447-0.68 c-0.258-0.393-0.203-0.921,0.13-1.254l0.444-0.444l0.33-0.33l-0.041-0.465C28.011,28.831,28,28.667,28,28.5 C28,25.467,30.467,23,33.5,23 M33.5,22c-3.59,0-6.5,2.91-6.5,6.5c0,0.197,0.012,0.391,0.029,0.583l-0.444,0.444 c-0.682,0.682-0.768,1.734-0.259,2.51L22,36.363L22,38l2,2l1.637,0L27,38.637V37h1.637l1.327-1.327 C30.295,35.891,30.678,36,31.06,36c0.512,0,1.023-0.195,1.414-0.585l0.444-0.444C33.109,34.988,33.303,35,33.5,35 c3.59,0,6.5-2.91,6.5-6.5S37.09,22,33.5,22L33.5,22z" />
  <g>
    <path fill="#967a44" d="M35.975,30.975c1.367-1.367,1.367-3.583,0-4.95c-1.367-1.367-3.583-1.367-4.95,0L35.975,30.975z" />
  </g>
  <path fill="none" stroke="#967a44" d="M27.865 33.11L29.816 35.061" />
</svg>