<?xml version="1.0" encoding="utf-8"?>
<svg xmlns="http://www.w3.org/2000/svg" viewBox="0 0 64 64" width="128" height="128">
  <linearGradient id="Yv3YpSdjJEXH73USb4kNOa" x1="11" x2="11" y1="51.5" y2="56.336" gradientUnits="userSpaceOnUse" spreadMethod="reflect">
    <stop offset="0" stop-color="#6dc7ff" />
    <stop offset="1" stop-color="#e6abff" />
  </linearGradient>
  <path fill="url(#Yv3YpSdjJEXH73USb4kNOa)" d="M10 52H12V56H10z" />
  <linearGradient id="Yv3YpSdjJEXH73USb4kNOb" x1="25" x2="25" y1="43.333" y2="57.168" gradientUnits="userSpaceOnUse" spreadMethod="reflect">
    <stop offset="0" stop-color="#6dc7ff" />
    <stop offset="1" stop-color="#e6abff" />
  </linearGradient>
  <path fill="url(#Yv3YpSdjJEXH73USb4kNOb)" d="M24 44H26V56H24z" />
  <linearGradient id="Yv3YpSdjJEXH73USb4kNOc" x1="39" x2="39" y1="34.5" y2="57.882" gradientUnits="userSpaceOnUse" spreadMethod="reflect">
    <stop offset="0" stop-color="#6dc7ff" />
    <stop offset="1" stop-color="#e6abff" />
  </linearGradient>
  <path fill="url(#Yv3YpSdjJEXH73USb4kNOc)" d="M38 36H40V56H38z" />
  <linearGradient id="Yv3YpSdjJEXH73USb4kNOd" x1="53" x2="53" y1="27.333" y2="57.196" gradientUnits="userSpaceOnUse" spreadMethod="reflect">
    <stop offset="0" stop-color="#6dc7ff" />
    <stop offset="1" stop-color="#e6abff" />
  </linearGradient>
  <path fill="url(#Yv3YpSdjJEXH73USb4kNOd)" d="M52 28H54V56H52z" />
  <linearGradient id="Yv3YpSdjJEXH73USb4kNOe" x1="11" x2="11" y1="4.5" y2="59.187" gradientUnits="userSpaceOnUse" spreadMethod="reflect">
    <stop offset="0" stop-color="#1a6dff" />
    <stop offset="1" stop-color="#c822ff" />
  </linearGradient>
  <path fill="url(#Yv3YpSdjJEXH73USb4kNOe)" d="M16,44c0-1.105-0.895-2-2-2H8c-1.105,0-2,0.895-2,2v12c0,1.105,0.895,2,2,2h6 c1.105,0,2-0.895,2-2V44z M8,44h6v2H8V44z M14,56H8v-8h6V56z" />
  <linearGradient id="Yv3YpSdjJEXH73USb4kNOf" x1="25" x2="25" y1="4.5" y2="59.187" gradientUnits="userSpaceOnUse" spreadMethod="reflect">
    <stop offset="0" stop-color="#1a6dff" />
    <stop offset="1" stop-color="#c822ff" />
  </linearGradient>
  <path fill="url(#Yv3YpSdjJEXH73USb4kNOf)" d="M28,34h-6c-1.103,0-2,0.899-2,2.001v4v2v14C20,57.104,20.897,58,22,58h6 c1.103,0,2-0.896,2-1.999v-14v-2v-4C30,34.899,29.102,34,28,34z M22,36h6v2h-6V36z M28,56h-6V42.001V40h6v2.001V56z" />
  <linearGradient id="Yv3YpSdjJEXH73USb4kNOg" x1="39" x2="39" y1="4.5" y2="59.187" gradientUnits="userSpaceOnUse" spreadMethod="reflect">
    <stop offset="0" stop-color="#1a6dff" />
    <stop offset="1" stop-color="#c822ff" />
  </linearGradient>
  <path fill="url(#Yv3YpSdjJEXH73USb4kNOg)" d="M42,26h-6c-1.103,0-2,0.899-2,2.001v4v2v22C34,57.104,34.897,58,36,58h6 c1.103,0,2-0.896,2-1.999v-22v-2v-4C44,26.899,43.102,26,42,26z M36,28h6v2h-6V28z M42,56h-6V34.001V32h6v2.001V56z" />
  <linearGradient id="Yv3YpSdjJEXH73USb4kNOh" x1="53" x2="53" y1="4.5" y2="59.187" gradientUnits="userSpaceOnUse" spreadMethod="reflect">
    <stop offset="0" stop-color="#1a6dff" />
    <stop offset="1" stop-color="#c822ff" />
  </linearGradient>
  <path fill="url(#Yv3YpSdjJEXH73USb4kNOh)" d="M56,18h-6c-1.103,0-2,0.899-2,2.001v4v2v30C48,57.104,48.897,58,50,58h6 c1.103,0,2-0.896,2-1.999v-30v-2v-4C58,18.899,57.102,18,56,18z M50,20h6v2h-6V20z M56,56h-6V26.001V24h6v2.001V56z" />
  <linearGradient id="Yv3YpSdjJEXH73USb4kNOi" x1="29.22" x2="29.22" y1="4.501" y2="59.188" gradientUnits="userSpaceOnUse" spreadMethod="reflect">
    <stop offset="0" stop-color="#1a6dff" />
    <stop offset="1" stop-color="#c822ff" />
  </linearGradient>
  <path fill="url(#Yv3YpSdjJEXH73USb4kNOi)" d="M51.182,6.969c-0.384-0.666-1.121-1.044-1.908-0.958l-6.422,0.605 c-0.534,0.051-1,0.365-1.245,0.841c-0.233,0.453-0.224,0.981,0.027,1.413l0.965,1.668L13.666,27.041 c-0.709-0.64-1.638-1.04-2.666-1.04c-2.206,0-4,1.794-4,4s1.794,4,4,4s4-1.794,4-4c0-0.453-0.092-0.882-0.231-1.288l28.832-16.444 l1.158,2.001c0.25,0.433,0.703,0.705,1.212,0.729c0.025,0.001,0.05,0.002,0.075,0.002c0.506,0,0.978-0.242,1.273-0.658l3.737-5.246 C51.517,8.448,51.566,7.633,51.182,6.969z M11,32.001c-1.103,0-2-0.897-2-2s0.897-2,2-2s2,0.897,2,2S12.102,32.001,11,32.001z M46.104,12.602L43.75,8.533l5.678-0.597L46.104,12.602z" />
</svg>